# xmcd
#
# Track frame offsets:
#	150
#	13767
#	32375
#	50105
#	67227
#	80837
#	95502
#	109217
#	122567
#	134840
#	145392
#	159780
#
# Disc length: 2509 seconds
#
# Revision: 4
# Processed by: cddbd v1.5.2PL0 Copyright (c) Steve Scherf et al.
# Submitted via: audiograbber 1.83.01
#
DISCID=ae09cb0c
DTITLE=Flying Burrito Brothers - 20th Century Masters - The Millennium Collecti
DTITLE=on - The Best Of
DYEAR=2001
DGENRE=Oldies
TTITLE0=Christine's Tune
TTITLE1=Sin City
TTITLE2=Do Right Woman
TTITLE3=Dark End of the Street
TTITLE4=Wheels
TTITLE5=Hot Burrito #2
TTITLE6=Train Song
TTITLE7=Lazy Days
TTITLE8=Cody, Cody
TTITLE9=Break My Mind
TTITLE10=Together Again
TTITLE11=Wild Horses
EXTD=
EXTT0=
EXTT1=
EXTT2=
EXTT3=
EXTT4=
EXTT5=
EXTT6=
EXTT7=
EXTT8=
EXTT9=
EXTT10=
EXTT11=
PLAYORDER=
